<?xml version="1.0" encoding="UTF-8" standalone="no"?>
<svg
   xmlns:dc="http://purl.org/dc/elements/1.1/"
   xmlns:cc="http://creativecommons.org/ns#"
   xmlns:rdf="http://www.w3.org/1999/02/22-rdf-syntax-ns#"
   xmlns:svg="http://www.w3.org/2000/svg"
   xmlns="http://www.w3.org/2000/svg"
   xmlns:sodipodi="http://sodipodi.sourceforge.net/DTD/sodipodi-0.dtd"
   xmlns:inkscape="http://www.inkscape.org/namespaces/inkscape"
   viewBox="0 0 166.24001 48.183168"
   version="1.1"
   id="svg24"
   sodipodi:docname="logo.svg"
   width="166.24001"
   height="48.183167"
   inkscape:version="0.92.5 (2060ec1f9f, 2020-04-08)">
  <metadata
     id="metadata30">
    <rdf:RDF>
      <cc:Work
         rdf:about="">
        <dc:format>image/svg+xml</dc:format>
        <dc:type
           rdf:resource="http://purl.org/dc/dcmitype/StillImage" />
        <dc:title>logo</dc:title>
      </cc:Work>
    </rdf:RDF>
  </metadata>
  <defs
     id="defs28" />
  <sodipodi:namedview
     pagecolor="#ffffff"
     bordercolor="#666666"
     borderopacity="1"
     objecttolerance="10"
     gridtolerance="10"
     guidetolerance="10"
     inkscape:pageopacity="0"
     inkscape:pageshadow="2"
     inkscape:window-width="2036"
     inkscape:window-height="1223"
     id="namedview26"
     showgrid="false"
     fit-margin-top="0"
     fit-margin-left="0"
     fit-margin-right="0"
     fit-margin-bottom="0"
     inkscape:zoom="2.0403571"
     inkscape:cx="220.65983"
     inkscape:cy="-7.4584679"
     inkscape:window-x="0"
     inkscape:window-y="27"
     inkscape:window-maximized="0"
     inkscape:current-layer="svg24" />
  <title
     id="title2">logo</title>
  <path
     d="m 147.24,17.511997 h 2.25 v -2.3 h -2.25 z m 6.15,0 h 2.25 v -2.3 h -2.25 z m -37.49,7.51 a 3.45,3.45 0 0 0 2.35,-3.43 3.93,3.93 0 0 0 -4.22,-4 h -5.11 v 13.1 h 2.53 v -5.25 h 1.83 l 2.58,5.26 h 3 z m -2,-1.69 h -2.44 v -3.48 h 2.44 a 1.73,1.73 0 0 1 1.83,1.74 1.7,1.7 0 0 1 -1.85,1.74 z m 35.94,2.86 1.64,-4.74 1.6,4.74 z m 0.61,-8.59 -4.79,13.09 h 2.68 l 0.8,-2.35 h 4.65 l 0.75,2.35 h 2.68 l -4.82,-13.09 h -2 z m -87.81,8.5 a 2.19,2.19 0 0 1 -2.3,2.39 2.16,2.16 0 0 1 -2.22,-2.39 v -8.5 h -2.57 v 8.59 a 4.81,4.81 0 0 0 9.62,0 v -8.59 h -2.53 z m 13,-0.51 -5.16,-8 h -2.36 v 13.1 h 2.58 v -8.07 l 5.16,8.07 h 2.3 v -13.09 h -2.57 z m 5.63,5.11 h 2.58 v -13.1 h -2.63 z m 14.78,-13.1 h -2.68 l -2.62,8.5 -2.63,-8.5 h -2.63 l 4.32,13.09 h 1.88 z m 10.28,2.25 v -2.25 h -8.59 v 13 h 8.59 v -2.21 h -6.05 v -3.19 h 5.16 v -2.25 h -5.16 v -3.1 z m 23.13,6.94 a 3.68,3.68 0 0 0 -1,-2.77 4,4 0 0 0 -2.49,-1 l -1.55,-0.23 a 2.66,2.66 0 0 1 -1.22,-0.52 1.4,1.4 0 0 1 -0.37,-0.94 c 0,-0.89 0.66,-1.64 2,-1.64 a 3.51,3.51 0 0 1 2.68,0.89 l 1.64,-1.6 a 5.66,5.66 0 0 0 -4.22,-1.55 c -2.82,0 -4.55,1.64 -4.55,4 a 3.43,3.43 0 0 0 0.94,2.58 4.53,4.53 0 0 0 2.51,1.09 l 1.55,0.23 a 2,2 0 0 1 1.17,0.42 1.52,1.52 0 0 1 0.42,1.13 c 0,1 -0.85,1.59 -2.35,1.59 a 4.44,4.44 0 0 1 -3.14,-1.08 l -1.64,1.71 a 6.07,6.07 0 0 0 4.79,1.74 c 2.71,-0.05 4.83,-1.51 4.83,-4.04 z m 5,-9.19 h -2.53 v 13.09 h 2.53 z m 11.59,0 h -9.38 v 2.25 h 3.45 v 10.8 h 2.53 v -10.8 h 3.43 z m 10.74,2.25 h 3.43 v 10.84 h 2.54 v -10.84 h 3.43 v -2.25 h -9.39 z m -93.07,16.43 a 4.56,4.56 0 0 0 -3.43,-1.27 h -4.74 v 13.09 h 4.74 a 4.56,4.56 0 0 0 3.43,-1.27 c 1.5,-1.46 1.31,-3.38 1.31,-5.35 0,-1.97 0.19,-3.75 -1.31,-5.2 z m -1.79,8.72 a 2.28,2.28 0 0 1 -1.88,0.8 h -1.93 v -8.49 h 1.92 a 2.28,2.28 0 0 1 1.88,0.8 c 0.47,0.56 0.56,1.41 0.56,3.38 0,1.97 -0.08,2.95 -0.55,3.51 z m 12.81,-2.53 a 3.53,3.53 0 0 0 2.38,-3.43 4,4 0 0 0 -4.27,-4 h -5.1 v 13.06 h 2.53 v -5.21 h 1.84 l 2.58,5.21 h 3 z m -2,-1.74 h -2.45 v -3.42 h 2.44 a 1.72,1.72 0 1 1 0,3.43 z m 7.12,7.37 h 8.63 v -2.3 h -6.1 v -3.14 h 5.16 v -2.3 h -5.16 v -3.05 h 6.1 v -2.3 h -8.63 z m 16.14,-7.65 -1.55,-0.24 a 2.23,2.23 0 0 1 -1.22,-0.52 1.2,1.2 0 0 1 -0.38,-0.94 c 0,-0.89 0.66,-1.64 2,-1.64 a 3.77,3.77 0 0 1 2.68,0.89 l 1.64,-1.6 a 5.63,5.63 0 0 0 -4.22,-1.5 c -2.86,0 -4.55,1.64 -4.55,3.94 a 3.45,3.45 0 0 0 0.89,2.58 4.51,4.51 0 0 0 2.58,1.08 l 1.55,0.23 a 2.11,2.11 0 0 1 1.17,0.47 1.33,1.33 0 0 1 0.38,1.08 c 0,1.08 -0.8,1.64 -2.3,1.64 a 4.14,4.14 0 0 1 -3.14,-1.13 l -1.64,1.64 a 6,6 0 0 0 4.74,1.73 c 2.77,0 4.88,-1.41 4.88,-3.94 a 3.62,3.62 0 0 0 -1,-2.77 4.54,4.54 0 0 0 -2.49,-1 z m 14.17,-4.18 a 4.67,4.67 0 0 0 -3.47,-1.27 h -4.69 v 13.1 h 4.69 a 4.67,4.67 0 0 0 3.47,-1.27 c 1.46,-1.46 1.31,-3.38 1.31,-5.35 0,-1.97 0.15,-3.75 -1.31,-5.2 z m -1.78,8.73 a 2.31,2.31 0 0 1 -1.92,0.8 h -1.92 v -8.49 h 1.92 a 2.3,2.3 0 0 1 1.92,0.8 c 0.47,0.56 0.56,1.41 0.56,3.38 0,1.97 -0.09,2.95 -0.56,3.51 z m 5.82,3.1 h 8.59 v -2.3 h -6.05 v -3.14 h 5.16 v -2.3 h -5.16 v -3.05 h 6.05 v -2.3 h -8.59 z m 18.63,-5.07 -5.16,-8 h -2.3 v 13.07 h 2.58 v -8 l 5.16,8 h 2.3 v -13.09 h -2.58 z m -73.86,-29.84 h 2.53 V 2.4019971 h 3.43 V 0.10199712 H 55.55 V 2.4019971 h 3.43 z m 16.94,-2.25 h -6.1 V 7.7519971 h 5.16 v -2.25 h -5.16 v -3.1 h 6.1 V 0.10199712 H 67.28 V 13.101997 h 8.64 z M 87.79,9.2019971 H 85.21 A 2.19,2.19 0 0 1 83,11.031997 a 2.11,2.11 0 0 1 -1.64,-0.66 C 80.84,9.8119971 80.7,9.2019971 80.7,6.6619971 c 0,-2.54 0.14,-3.14 0.66,-3.71 a 2.12,2.12 0 0 1 1.64,-0.66 2.19,2.19 0 0 1 2.21,1.81 h 2.58 A 4.65,4.65 0 0 0 82.96,0.01199712 4.81,4.81 0 0 0 79.44,1.4619971 c -1.32,1.31 -1.32,2.96 -1.32,5.21 0,2.25 0,3.8999999 1.27,5.2099999 a 4.81,4.81 0 0 0 3.52,1.45 4.65,4.65 0 0 0 4.88,-4.1299999 z m 4.93,-1.45 h 4.46 v 5.4399999 h 2.53 V 0.10199712 H 97.18 V 5.5019971 H 92.72 V 0.10199712 H 90.18 V 13.101997 h 2.54 z m 12.81,-2.58 5.21,7.9999999 h 2.25 V 0.10199712 h -2.54 V 8.1019971 l -5.21,-7.99999998 h -2.25 V 13.101997 h 2.54 z m 13.28,-4.99999998 h -2.54 V 13.171997 h 2.54 z m 6.9,10.88999988 a 4.44,4.44 0 0 1 -3.14,-1.0799999 l -1.65,1.6199999 a 6.07,6.07 0 0 0 4.78,1.74 c 2.72,0 4.83,-1.45 4.83,-3.9999999 a 3.68,3.68 0 0 0 -1,-2.77 4,4 0 0 0 -2.49,-1 l -1.55,-0.24 a 2.64,2.64 0 0 1 -1.22,-0.52 1.49,1.49 0 0 1 -0.38,-0.94 c 0,-0.89 0.66,-1.64 2,-1.64 a 3.51,3.51 0 0 1 2.68,0.89 l 1.64,-1.6 a 5.66,5.66 0 0 0 -4.23,-1.50999998 c -2.82,0 -4.55,1.63999998 -4.55,3.99999998 a 3.43,3.43 0 0 0 0.94,2.58 4.52,4.52 0 0 0 2.53,1.08 l 1.55,0.23 a 2,2 0 0 1 1.17,0.42 1.52,1.52 0 0 1 0.43,1.13 c 0,1.0199999 -0.85,1.5799999 -2.35,1.5799999 z m 11.87,2.3 a 4.63,4.63 0 0 0 4.79,-4.1299999 h -2.58 a 2.15,2.15 0 0 1 -2.21,1.8299999 2.12,2.12 0 0 1 -1.64,-0.66 c -0.47,-0.5599999 -0.61,-1.1699999 -0.61,-3.7099999 0,-2.54 0.14,-3.14 0.61,-3.71 a 2.12,2.12 0 0 1 1.64,-0.66 2.15,2.15 0 0 1 2.2,1.78 h 2.58 A 4.6,4.6 0 0 0 137.57,0.01199712 4.85,4.85 0 0 0 134,1.4619971 c -1.31,1.31 -1.27,3 -1.27,5.21 0,2.21 0,3.8999999 1.27,5.2099999 a 4.84,4.84 0 0 0 3.57,1.45 z m 9.76,-5.5799999 h 4.41 v 5.4399999 h 2.53 V 0.10199712 h -2.53 V 5.5019971 h -4.41 V 0.10199712 h -2.58 V 13.101997 h 2.58 z m 18.9,-5.38 V 0.10199712 h -8.63 V 13.101997 h 8.63 v -2.16 h -6.12 V 7.7519971 h 5.16 v -2.25 h -5.16 v -3.1 z M 29.12,16.101997 v 15.3 H 18.91 v -15.3 H 4.64 L 16.28,4.5119971 H 31.72 L 43.35,16.101997 Z M 15.67,3.1019971 2.91,15.821997 v 1.78 h 14.54 v 15.25 h 13.09 v -15.25 h 14.5 v -1.78 L 32.28,3.1019971 Z"
     id="path4"
     inkscape:connector-curvature="0"
     style="fill:#002557" />
  <path
     d="m 46.5,32.991997 -13.66,13.66 H 15.12 l -13.67,-13.66 v -17.73 L 15.12,1.6019971 H 32.84 L 46.5,15.261997 Z M 14.54,0.10199712 0,14.691997 v 18.87 l 14.54,14.54 h 18.91 l 14.5,-14.55 v -18.86 L 33.45,0.10199712 Z"
     id="path6"
     inkscape:connector-curvature="0"
     style="fill:#002557" />
  <path
     d="m 33.45,20.511997 h 10.19 v 11.36 l -11.92,11.87 H 16.28 l -11.92,-11.87 v -11.36 h 10.18 v 15.25 h 18.91 z m -1.46,13.8 h -16 v -15.21 H 2.91 v 13.33 l 12.76,12.76 h 16.61 l 12.76,-12.76 v -13.33 h -13 z"
     id="path8"
     inkscape:connector-curvature="0"
     style="fill:#002557" />
</svg>
